<?xml version="1.0" encoding="UTF-8" standalone="no"?>
<!-- Created with Inkscape (http://www.inkscape.org/) -->

<svg
   xmlns:dc="http://purl.org/dc/elements/1.1/"
   xmlns:cc="http://creativecommons.org/ns#"
   xmlns:rdf="http://www.w3.org/1999/02/22-rdf-syntax-ns#"
   xmlns:svg="http://www.w3.org/2000/svg"
   xmlns="http://www.w3.org/2000/svg"
   xmlns:sodipodi="http://sodipodi.sourceforge.net/DTD/sodipodi-0.dtd"
   xmlns:inkscape="http://www.inkscape.org/namespaces/inkscape"
   width="210mm"
   height="297mm"
   viewBox="0 0 744.09448819 1052.3622047"
   id="svg2"
   version="1.1"
   inkscape:version="0.91+devel r14658 custom"
   sodipodi:docname="MAKE-IT_only_logo_ONLY_ICONIC_layered.svg">
  <defs
     id="defs4">
    <clipPath
       id="clipPath5618"
       clipPathUnits="userSpaceOnUse">
      <path
         inkscape:connector-curvature="0"
         id="path5620"
         d="m 0,841.89 1190.549,0 0,-841.89 L 0,0 0,841.89 Z" />
    </clipPath>
    <clipPath
       id="clipPath5658"
       clipPathUnits="userSpaceOnUse">
      <path
         inkscape:connector-curvature="0"
         id="path5660"
         d="m 0,841.89 1190.549,0 0,-841.89 L 0,0 0,841.89 Z" />
    </clipPath>
    <clipPath
       id="clipPath5694"
       clipPathUnits="userSpaceOnUse">
      <path
         inkscape:connector-curvature="0"
         id="path5696"
         d="m 0,841.89 1190.549,0 0,-841.89 L 0,0 0,841.89 Z" />
    </clipPath>
    <clipPath
       id="clipPath5798"
       clipPathUnits="userSpaceOnUse">
      <path
         inkscape:connector-curvature="0"
         id="path5800"
         d="m 0,841.889 1190.548,0 L 1190.548,0 0,0 0,841.889 Z" />
    </clipPath>
    <clipPath
       id="clipPath5900"
       clipPathUnits="userSpaceOnUse">
      <path
         inkscape:connector-curvature="0"
         id="path5902"
         d="m 0,841.89 1190.548,0 0,-841.89 L 0,0 0,841.89 Z" />
    </clipPath>
    <clipPath
       id="clipPath6026"
       clipPathUnits="userSpaceOnUse">
      <path
         inkscape:connector-curvature="0"
         id="path6028"
         d="m 0,841.89 1190.548,0 0,-841.89 L 0,0 0,841.89 Z" />
    </clipPath>
    <clipPath
       id="clipPath6070"
       clipPathUnits="userSpaceOnUse">
      <path
         inkscape:connector-curvature="0"
         id="path6072"
         d="m 0,841.89 1190.548,0 0,-841.89 L 0,0 0,841.89 Z" />
    </clipPath>
    <clipPath
       id="clipPath6106"
       clipPathUnits="userSpaceOnUse">
      <path
         inkscape:connector-curvature="0"
         id="path6108"
         d="m 0,841.89 1190.548,0 0,-841.89 L 0,0 0,841.89 Z" />
    </clipPath>
    <clipPath
       id="clipPath6144"
       clipPathUnits="userSpaceOnUse">
      <path
         inkscape:connector-curvature="0"
         id="path6146"
         d="m 0,841.89 1190.548,0 0,-841.89 L 0,0 0,841.89 Z" />
    </clipPath>
    <clipPath
       id="clipPath6269"
       clipPathUnits="userSpaceOnUse">
      <path
         inkscape:connector-curvature="0"
         id="path6271-3"
         d="m 0,841.89 1190.549,0 0,-841.89 L 0,0 0,841.89 Z" />
    </clipPath>
    <clipPath
       id="clipPath6317"
       clipPathUnits="userSpaceOnUse">
      <path
         inkscape:connector-curvature="0"
         id="path6319-1"
         d="m 0,841.89 1190.549,0 0,-841.89 L 0,0 0,841.89 Z" />
    </clipPath>
    <clipPath
       id="clipPath6446"
       clipPathUnits="userSpaceOnUse">
      <path
         inkscape:connector-curvature="0"
         id="path6448"
         d="m 0,841.89 1190.549,0 0,-841.89 L 0,0 0,841.89 Z" />
    </clipPath>
    <clipPath
       id="clipPath6568"
       clipPathUnits="userSpaceOnUse">
      <path
         inkscape:connector-curvature="0"
         id="path6570"
         d="M 139.975,0 1057.633,0 139.975,0 Z" />
    </clipPath>
    <clipPath
       id="clipPath6680"
       clipPathUnits="userSpaceOnUse">
      <path
         inkscape:connector-curvature="0"
         id="path6682"
         d="m 0,841.89 1190.548,0 0,-841.89 L 0,0 0,841.89 Z" />
    </clipPath>
    <clipPath
       id="clipPath6764"
       clipPathUnits="userSpaceOnUse">
      <path
         inkscape:connector-curvature="0"
         id="path6766"
         d="m 0,841.89 1190.548,0 0,-841.89 L 0,0 0,841.89 Z" />
    </clipPath>
    <clipPath
       id="clipPath6804"
       clipPathUnits="userSpaceOnUse">
      <path
         inkscape:connector-curvature="0"
         id="path6806"
         d="m 0,841.89 1190.548,0 0,-841.89 L 0,0 0,841.89 Z" />
    </clipPath>
    <clipPath
       id="clipPath6974"
       clipPathUnits="userSpaceOnUse">
      <path
         inkscape:connector-curvature="0"
         id="path6976"
         d="m 0,841.89 1190.548,0 0,-841.89 L 0,0 0,841.89 Z" />
    </clipPath>
    <clipPath
       id="clipPath7058"
       clipPathUnits="userSpaceOnUse">
      <path
         inkscape:connector-curvature="0"
         id="path7060"
         d="m 0,841.89 1190.548,0 0,-841.89 L 0,0 0,841.89 Z" />
    </clipPath>
    <clipPath
       id="clipPath7098"
       clipPathUnits="userSpaceOnUse">
      <path
         inkscape:connector-curvature="0"
         id="path7100"
         d="m 0,841.89 1190.548,0 0,-841.89 L 0,0 0,841.89 Z" />
    </clipPath>
    <clipPath
       id="clipPath7268"
       clipPathUnits="userSpaceOnUse">
      <path
         inkscape:connector-curvature="0"
         id="path7270"
         d="m 0,841.89 1190.549,0 0,-841.89 L 0,0 0,841.89 Z" />
    </clipPath>
    <clipPath
       id="clipPath7352"
       clipPathUnits="userSpaceOnUse">
      <path
         inkscape:connector-curvature="0"
         id="path7354"
         d="m 0,841.89 1190.549,0 0,-841.89 L 0,0 0,841.89 Z" />
    </clipPath>
    <clipPath
       id="clipPath7392"
       clipPathUnits="userSpaceOnUse">
      <path
         inkscape:connector-curvature="0"
         id="path7394"
         d="m 0,841.89 1190.549,0 0,-841.89 L 0,0 0,841.89 Z" />
    </clipPath>
    <clipPath
       id="clipPath7562"
       clipPathUnits="userSpaceOnUse">
      <path
         inkscape:connector-curvature="0"
         id="path7564"
         d="m 0,841.89 1190.549,0 0,-841.89 L 0,0 0,841.89 Z" />
    </clipPath>
    <clipPath
       id="clipPath7646"
       clipPathUnits="userSpaceOnUse">
      <path
         inkscape:connector-curvature="0"
         id="path7648"
         d="m 0,841.89 1190.549,0 0,-841.89 L 0,0 0,841.89 Z" />
    </clipPath>
    <clipPath
       id="clipPath7686"
       clipPathUnits="userSpaceOnUse">
      <path
         inkscape:connector-curvature="0"
         id="path7688"
         d="m 0,841.89 1190.549,0 0,-841.89 L 0,0 0,841.89 Z" />
    </clipPath>
    <clipPath
       id="clipPath8374"
       clipPathUnits="userSpaceOnUse">
      <path
         inkscape:connector-curvature="0"
         id="path8376"
         d="m 0,841.89 1190.549,0 0,-841.89 L 0,0 0,841.89 Z" />
    </clipPath>
    <clipPath
       id="clipPath8422"
       clipPathUnits="userSpaceOnUse">
      <path
         inkscape:connector-curvature="0"
         id="path8424"
         d="m 0,841.89 1190.549,0 0,-841.89 L 0,0 0,841.89 Z" />
    </clipPath>
  </defs>
  <sodipodi:namedview
     id="base"
     pagecolor="#ffffff"
     bordercolor="#666666"
     borderopacity="1.0"
     inkscape:pageopacity="0.0"
     inkscape:pageshadow="2"
     inkscape:zoom="0.18815465"
     inkscape:cx="319.24823"
     inkscape:cy="588.6962"
     inkscape:document-units="px"
     inkscape:current-layer="layer2"
     showgrid="false"
     inkscape:window-width="1280"
     inkscape:window-height="756"
     inkscape:window-x="0"
     inkscape:window-y="0"
     inkscape:window-maximized="0" />
  <metadata
     id="metadata7">
    <rdf:RDF>
      <cc:Work
         rdf:about="">
        <dc:format>image/svg+xml</dc:format>
        <dc:type
           rdf:resource="http://purl.org/dc/dcmitype/StillImage" />
        <dc:title></dc:title>
      </cc:Work>
    </rdf:RDF>
  </metadata>
  <g
     inkscape:label="path"
     inkscape:groupmode="layer"
     id="layer1"
     style="display:inline">
    <g
       id="g5646"
       transform="matrix(0.88367107,0,0,-0.88367107,134.7398,501.5181)">
      <path
         d="M 0,0 28.559,-39.5505 C 36.328,-50 48.693,-56.806 62.65,-56.806 l 0,-0.014 512.63,0 -0.007,-0.008 c 14.507,0 26.267,11.76 26.267,26.263 l 0,114.792 0,0.758 c 0,14.508 -11.76,26.266 -26.267,26.266 l -52.531,0 c -14.505,0 -26.264,-11.758 -26.264,-26.266"
         style="fill:none;stroke:#252122;stroke-width:12.97200012;stroke-linecap:round;stroke-linejoin:miter;stroke-miterlimit:10;stroke-dasharray:none;stroke-opacity:1"
         id="path5648"
         inkscape:connector-curvature="0"
         sodipodi:nodetypes="ccccccscsssc" />
    </g>
    <g
       id="g5682"
       transform="matrix(0.88367107,0,0,-0.88367107,134.7398,501.5181)" />
  </g>
  <g
     inkscape:groupmode="layer"
     id="layer8"
     inkscape:label="wave1"
     style="display:inline">
    <g
       style="display:inline"
       id="g5666"
       transform="matrix(0.88367107,0,0,-0.88367107,131.369,472.9257)">
      <path
         d="M 0,0 C -11.727,2.106 -23.016,-6.083 -25.207,-18.29"
         style="fill:none;stroke:#252122;stroke-width:11.11900043;stroke-linecap:round;stroke-linejoin:miter;stroke-miterlimit:10;stroke-dasharray:none;stroke-opacity:1"
         id="path5668"
         inkscape:connector-curvature="0" />
    </g>
  </g>
  <g
     inkscape:groupmode="layer"
     id="layer9"
     inkscape:label="wave2"
     style="display:inline">
    <g
       style="display:inline"
       id="g5670"
       transform="matrix(0.88367107,0,0,-0.88367107,134.417,455.9677)">
      <path
         d="M 0,0 C -21.91,3.938 -42.992,-11.363 -47.088,-34.168"
         style="fill:none;stroke:#252122;stroke-width:11.11900043;stroke-linecap:round;stroke-linejoin:miter;stroke-miterlimit:10;stroke-dasharray:none;stroke-opacity:1"
         id="path5672"
         inkscape:connector-curvature="0" />
    </g>
  </g>
  <g
     inkscape:groupmode="layer"
     id="layer10"
     inkscape:label="wave3"
     style="display:inline">
    <g
       style="display:inline"
       id="g5638"
       transform="matrix(0.88367107,0,0,-0.88367107,137.3769,439.492)">
      <path
         d="M 0,0 C -31.805,5.711 -62.405,-16.493 -68.356,-49.592"
         style="fill:none;stroke:#252122;stroke-width:11.11900043;stroke-linecap:round;stroke-linejoin:miter;stroke-miterlimit:10;stroke-dasharray:none;stroke-opacity:1"
         id="path5640"
         inkscape:connector-curvature="0" />
    </g>
  </g>
  <g
     inkscape:groupmode="layer"
     id="layer7"
     inkscape:label="dot"
     style="display:inline">
    <g
       style="display:inline"
       id="g5678"
       transform="matrix(0.88367107,0,0,-0.88367107,127.8137,487.1912)">
      <path
         d="m 0,0 c -6.523,-2.843 -9.508,-10.433 -6.666,-16.961 2.842,-6.522 10.437,-9.507 16.959,-6.661 6.527,2.837 9.512,10.43 6.666,16.955 C 14.116,-0.14 6.526,2.845 0,0"
         style="fill:#100f0d;fill-opacity:1;fill-rule:nonzero;stroke:none"
         id="path5680"
         inkscape:connector-curvature="0" />
    </g>
  </g>
  <g
     inkscape:groupmode="layer"
     id="layer2"
     inkscape:label="text"
     style="display:inline" />
  <g
     inkscape:groupmode="layer"
     id="layer3"
     inkscape:label="red"
     style="display:inline">
    <g
       style="display:inline"
       id="g5626"
       transform="matrix(0.88367107,0,0,-0.88367107,497.4215,512.0074)">
      <path
         d="m 0,0 c 0,-9.813 -7.953,-17.767 -17.769,-17.767 l -53.574,0 c -9.81,0 -17.766,7.954 -17.766,17.767 l 0,53.573 c 0,9.815 7.956,17.765 17.766,17.765 l 53.574,0 C -7.953,71.338 0,63.388 0,53.573 L 0,0 Z"
         style="fill:#f14a4c;fill-opacity:1;fill-rule:nonzero;stroke:none"
         id="path5628"
         inkscape:connector-curvature="0" />
    </g>
  </g>
  <g
     inkscape:groupmode="layer"
     id="layer4"
     inkscape:label="blue"
     style="display:inline">
    <g
       style="display:inline"
       id="g5662"
       transform="matrix(0.88367107,0,0,-0.88367107,565.4405,452.9628)">
      <path
         d="m 0,0 -40.819,-70.595 c -0.62,-1.252 -0.968,-2.636 -0.97,-4.106 0,-5.505 4.899,-9.97 10.935,-9.97 l 81.654,0 c 5.049,0 9.145,4.094 9.145,9.147 0,1.259 -0.254,2.464 -0.721,3.559 L 17.953,-0.206 C 15.994,2.7 12.672,4.607 8.909,4.607 5.225,4.607 1.969,2.789 0,0"
         style="fill:#3e6186;fill-opacity:1;fill-rule:nonzero;stroke:none"
         id="path5664"
         inkscape:connector-curvature="0" />
    </g>
  </g>
  <g
     inkscape:groupmode="layer"
     id="layer5"
     inkscape:label="green"
     style="display:inline">
    <g
       style="display:inline"
       id="g5622"
       transform="matrix(0.88367107,0,0,-0.88367107,268.1378,488.3363)">
      <path
         d="m 0,0 c 0,-25.573 -20.73,-46.302 -46.299,-46.302 -25.574,0 -46.301,20.729 -46.301,46.302 0,25.57 20.727,46.299 46.301,46.299 C -20.73,46.299 0,25.57 0,0"
         style="fill:#75ba69;fill-opacity:1;fill-rule:nonzero;stroke:none"
         id="path5624"
         inkscape:connector-curvature="0" />
    </g>
  </g>
  <g
     inkscape:groupmode="layer"
     id="layer6"
     inkscape:label="orange"
     style="display:inline">
    <path
       inkscape:connector-curvature="0"
       id="path5700"
       style="display:inline;fill:#eea240;fill-opacity:1;fill-rule:nonzero;stroke:none"
       d="m 327.7635,527.784 c -4.3282,0 -9.64,-3.0663 -11.8041,-6.8149 l -14.873,-25.7608 c -2.1642,-3.7485 -2.1642,-9.882 0,-13.6297 l 14.873,-25.7617 c 2.1641,-3.7485 7.4759,-6.8148 11.8041,-6.8148 l 29.7461,0 c 4.3283,0 9.64,3.0663 11.8041,6.8148 l 14.8731,25.7617 c 2.1641,3.7477 2.1641,9.8812 0,13.6297 l -14.8731,25.7608 c -2.1641,3.7486 -7.4758,6.8149 -11.8041,6.8149 l -29.7461,0 z" />
  </g>
</svg>
